<svg xmlns="http://www.w3.org/2000/svg" width="903.011" height="1027" viewBox="0 0 903.011 1027"><defs><style>.a{fill:#fff;opacity:0.083;}</style></defs><path class="a" d="M579.47,0A450.507,450.507,0,0,0,286,792.525L192.7,1027,410.9,867.926A450.642,450.642,0,1,0,579.47,0ZM888.8,560.9a329.4,329.4,0,0,1-620.023,0,25.5,25.5,0,0,1,24-34.174h29.835a25.631,25.631,0,0,1,23.6,15.731,250.613,250.613,0,0,0,465.288,0,25.5,25.5,0,0,1,23.732-16h29.835a25.495,25.495,0,0,1,24,34.174Z" transform="translate(-128.701 0)"/></svg>